<svg xmlns="http://www.w3.org/2000/svg" version="1.1" xmlns:xlink="http://www.w3.org/1999/xlink" xmlns:svgjs="http://svgjs.com/svgjs" width="1440" height="560" preserveAspectRatio="none" viewBox="0 0 1440 560"><g mask="url(&quot;#SvgjsMask1003&quot;)" fill="none"><path d="M669.6 578.64C789.26 552.44 752.75 239.21 1022.06 238.25 1291.37 237.29 1547.57 372.05 1726.97 372.65" stroke="rgba(194, 169, 51, 0.71)" stroke-width="2"></path><path d="M383.23 608.46C496.17 607.23 599.88 483.59 817.4 483.56 1034.92 483.53 1034.49 553.56 1251.57 553.56 1468.65 553.56 1575.8 483.78 1685.74 483.56" stroke="rgba(194, 169, 51, 0.71)" stroke-width="2"></path><path d="M184.66 627.55C362.22 625.38 507.25 429.42 865.13 423.84 1223.02 418.26 1365.19 186.56 1545.61 183.04" stroke="rgba(194, 169, 51, 0.71)" stroke-width="2"></path><path d="M695.49 596.53C844.11 573.69 895.88 234.52 1162.46 217.47 1429.04 200.42 1507.56 78.97 1629.43 77.47" stroke="rgba(194, 169, 51, 0.71)" stroke-width="2"></path><path d="M726.83 630.03C845.36 625.78 919.02 449.09 1160.5 437.68 1401.98 426.27 1471.06 209.89 1594.17 202.48" stroke="rgba(194, 169, 51, 0.71)" stroke-width="2"></path></g><defs><mask id="SvgjsMask1003"><rect width="1440" height="560" fill="#ffffff"></rect></mask></defs></svg>