<svg xmlns="http://www.w3.org/2000/svg" version="1.1" xmlns:xlink="http://www.w3.org/1999/xlink" xmlns:svgjs="http://svgjs.com/svgjs" width="1440" height="560" preserveAspectRatio="none" viewBox="0 0 1440 560"><g mask="url(&quot;#SvgjsMask1002&quot;)" fill="none"><path d="M-104.5 182.41C27.89 185.11 125.64 354.32 393.91 361.61 662.19 368.9 756.29 576.05 892.33 580.82" stroke="rgba(194, 169, 51, 0.71)" stroke-width="2"></path><path d="M-151.51 309.65C24.07 307.68 255.19 108.66 522.96 113.65 790.72 118.64 717.86 586.78 860.19 661.82" stroke="rgba(194, 169, 51, 0.71)" stroke-width="2"></path><path d="M-159.73 133.12C3.29 134.05 213.49 268.21 475.91 278.72 738.33 289.23 687.42 552.58 793.73 574.18" stroke="rgba(194, 169, 51, 0.71)" stroke-width="2"></path><path d="M-163.8 323.7C-47.63 323.9 65.89 393.7 295.57 393.7 525.26 393.7 517.02 321.52 754.94 323.7 992.86 325.88 1075.4 626.97 1214.31 642.02" stroke="rgba(194, 169, 51, 0.71)" stroke-width="2"></path><path d="M-140.09 70.04C41 70.88 189.92 212.49 568.33 221.24 946.74 229.99 1075.83 591.81 1276.75 603.77" stroke="rgba(194, 169, 51, 0.71)" stroke-width="2"></path></g><defs><mask id="SvgjsMask1002"><rect width="1440" height="560" fill="#ffffff"></rect></mask></defs></svg>