<svg xmlns="http://www.w3.org/2000/svg" version="1.1" xmlns:xlink="http://www.w3.org/1999/xlink" xmlns:svgjs="http://svgjs.com/svgjs" width="1440" height="560" preserveAspectRatio="none" viewBox="0 0 1440 560"><g mask="url(&quot;#SvgjsMask1006&quot;)" fill="none"><path d="M1523.05 307.05C1369.43 308.67 1169.86 481.13 931.95 475.05 694.04 468.97 764.63 35.13 636.4-39.43" stroke="rgba(194, 169, 51, 0.71)" stroke-width="2"></path><path d="M1572.45 439.77C1441.67 435.42 1313.01 259.25 1091.82 232.57 870.62 205.89 944.36-48.68 851.5-84.11" stroke="rgba(194, 169, 51, 0.71)" stroke-width="2"></path><path d="M1719.66 356.63C1599.89 356.44 1482.7 286.63 1245.73 286.63 1008.77 286.63 1025.57 362.82 771.8 356.63 518.03 350.44 455.5-46.37 297.87-77.46" stroke="rgba(194, 169, 51, 0.71)" stroke-width="2"></path><path d="M1718.2 428.84C1542.83 424.83 1411.26 190.08 1061.21 182.44 711.16 174.8 578.9-52.2 404.22-55.84" stroke="rgba(194, 169, 51, 0.71)" stroke-width="2"></path><path d="M1633.27 185.98C1520.47 186.87 1421.05 299.48 1196.19 297.98 971.34 296.48 894.03-8.79 759.12-25.77" stroke="rgba(194, 169, 51, 0.71)" stroke-width="2"></path></g><defs><mask id="SvgjsMask1006"><rect width="1440" height="560" fill="#ffffff"></rect></mask></defs></svg>